# xmcd
#
# Track frame offsets:
#	150
#	17127
#	35465
#
# Disc length: 644 seconds
#
# Revision: 0
# Processed by: cddbd v1.5.1PL0 Copyright (c) Steve Scherf et al.
# Submitted via: dBpowerAMP V4.0
#
DISCID=1b028203
DTITLE=Restless Heart - Big Iron Horse
DYEAR=1900
DGENRE=
TTITLE0=When She Cries
TTITLE1=Just in Time
TTITLE2=We Got The Love
EXTD=
EXTT0=
EXTT1=
EXTT2=
PLAYORDER=
